<?xml version="1.0" encoding="utf-8"?>
<!-- Generator: Adobe Illustrator 26.2.1, SVG Export Plug-In . SVG Version: 6.00 Build 0)  -->
<svg version="1.1" id="Warstwa_1" xmlns="http://www.w3.org/2000/svg" xmlns:xlink="http://www.w3.org/1999/xlink" x="0px" y="0px"
	 viewBox="0 0 289.13 260.79" style="enable-background:new 0 0 289.13 260.79;" xml:space="preserve">
<style type="text/css">
	.st0{fill:#C68B23;}
	.st1{fill-rule:evenodd;clip-rule:evenodd;fill:#C68B23;}
</style>
<g>
	<g>
		<path class="st0" d="M124.31,214.17l-29.08,0.03l-0.14-102.07c-0.01-10.1-1.63-17.43-3.59-22.22c-2.02-5.21-5.26-9.55-10.63-13.03
			c11.15,2.16,18.25,6.73,22.19,12.5c4,5.84,6.68,16.39,6.68,31.6v59.33c0,10.1,1.38,17.38,4.2,21.7c1.83,3,5.39,5.29,10.39,6.88
			c0.03-22.79,0.02-48.95-0.12-73.5c-0.19-34.28,2-65.69-8.25-77c-5.47-6.04-13.52-7.49-15.95-8.02l0,6.88
			c-8.92-7.92-1.28-21.01,10.15-19.85c13.88-11.98,37.3-5.16,47.3,8.43c7.85,8.19,10.24,26.17,10.24,46.7l-0.04,116.48
			c5.01-1.59,8.56-3.89,10.4-6.88c2.82-4.33,4.2-11.6,4.2-21.7v-59.34c0-15.21,1.97-25.83,5.97-31.67
			c3.78-5.54,11.16-9.45,21.6-11.67v0.61c-4.69,3.29-8.05,7.13-10.04,11.58c-1.97,4.79-2.87,12.19-2.88,22.29l-0.16,102.02l-29.07,0
			l-0.02,42.97h-14.6c0.07-27.91,0.03-175.17-0.01-175.16c-1.04-22.1-5.01-34.85-20.59-39.05c-5.83-1.57-12.49-1.01-17.92,1.71
			c19.64,5.18,24.24,22.49,24.21,57.21l-0.14,155.29h-14.34C124.24,246.83,124.28,231.66,124.31,214.17z"/>
		<path class="st0" d="M239.66,156.58c14.04,0,25.26-4.3,33.66-12.84c8.67-8.54,12.98-24.56,12.98-36.52
			c0-10.45-3.49-19.74-10.61-28.01c-6.92-8.27-15.6-11.88-26-12.43c-0.73-0.04-1.31-0.13-1.96-0.12
			c-24.16,0.2-36.21,13.8-36.27,40.85l-0.21,106.83l38.91,0.03c0,0-0.52-3.83-0.62-3.84c-18.72-2.29-22.69-11.92-23.08-26.25
			l-0.17-29.58l0,0.11C230.73,155.97,235.23,156.58,239.66,156.58z M226.03,110.51c0-9.63,1.88-17.22,5.71-22.68
			c8.11-10.9,22.79-9.75,31.18-0.42c4.84,5.33,7.25,11.82,7.25,19.4c0,8.4-2.91,21.63-8.68,28.18c-5.78,6.35-13.84,9.57-24.18,9.57
			c-3.01,0-6.8-0.32-11.08-0.86L226.03,110.51z"/>
		<path class="st0" d="M64.01,126.4l-0.14-23.91c-2.08-17.4-13.68-24.15-34.29-21.58C15.37,82.7,1.99,97.26,2.88,94.27
			c2.98-10.09,4.07-14.55,7.67-18.85c6.23-7.43,18.72-8.41,24.12-8.67c25.91-1.27,44.4,11.44,45.99,39.48l-0.1,108.05l-16.3,0
			l0.04-5.38c-5.61,3.69-12.85,5.58-21.73,5.65c-0.65,0-1.23-0.08-1.97-0.12c-10.4-0.55-19.08-4.17-26-12.43
			C7.49,193.73,4,184.44,4,173.99c0-11.96,4.32-27.98,12.98-36.52c8.4-8.54,19.62-12.84,33.66-12.84
			C55.07,124.62,59.57,125.24,64.01,126.4L64.01,126.4z M64.07,137.51c-4.3-0.55-8.06-0.86-11.08-0.86
			c-10.35,0-18.41,3.21-24.18,9.56c-10.36,11.76-12.32,35.59-1.43,47.59c8.39,9.33,23.07,10.48,31.18-0.42
			c3.73-5.33,5.61-12.67,5.71-21.96l0-1.78L64.07,137.51z"/>
		<g>
			<path class="st1" d="M149.96,30.1c0.19-0.72,0.41-1.57,0.66-2.61c1.47-6.01,0.46-18.42-4.92-23.96
				c2.18,6.16,1.96,13.78,0.21,20.93c-0.5,2.04-1.15,3.99-1.95,5.83c1.79,0.72,3.54,1.58,5.11,2.49c1.73,1.01,3.31,2.12,4.75,3.32
				c0.03-0.19,0.07-0.37,0.09-0.45c0.3-1.42,0.69-2.83,1.16-4.24c2.36-6.98,6.53-12.66,11.61-16.51
				C159.6,16.31,153.1,21.92,149.96,30.1z"/>
			<path class="st1" d="M131.31,22.13c-0.16,0.67-0.29,1.22-0.4,1.69c-1.91-6.47-6.04-11.76-11.24-14.59
				c3.72,4.97,6.22,11.25,6.85,18.16c1.52-0.12,3.07-0.1,4.64,0c1.55,0.1,3.12,0.29,4.7,0.58c0.15-2.01,0.47-4.04,0.97-6.07
				c1.75-7.15,4.15-14.09,8.88-18.36C138.46,5.63,132.63,16.73,131.31,22.13z"/>
		</g>
	</g>
</g>
</svg>
